<svg xmlns="http://www.w3.org/2000/svg" width="992.8977" height="378" viewBox="0 0 992.8977 378">
  <defs>
    <style>
      .cls-1 {
        fill: #4c4c4d;
      }
    </style>
  </defs>
  <g id="Layer_2" data-name="Layer 2">
    <g id="Layer_1-2" data-name="Layer 1">
      <g>
        <path class="cls-1" d="M103.5055,55.219a3.8861,3.8861,0,0,1,6.3381,3.0054V171.7556c0,57.1931,25.6052,86.2035,39.9654,99.1073a3.7366,3.7366,0,0,1-2.8845,6.5174,264.2045,264.2045,0,0,1-36.6472-7.394v81.2375c0,11.4881,5.4126,15.1637,17.1711,15.8838a5.4819,5.4819,0,0,1,5.207,5.4367v.0135a5.4384,5.4384,0,0,1-5.7662,5.432c-12.7986-.7767-43.837-2.5426-61.4622-2.5426-17.621,0-46.633,1.7651-59.4169,2.5421a5.4378,5.4378,0,0,1-5.7658-5.4315v-.0038a5.48,5.48,0,0,1,5.223-5.4389c13.0719-.75,17.2759-4.79,17.2759-15.8913V160.3971c0-27.2494-9.8207-36.9364-19.6415-37.5591A3.3517,3.3517,0,0,1,2.043,116.41C25.02,106.6489,63.98,86.7875,103.5055,55.219Z"/>
        <path class="cls-1" d="M283.469,160.9271c0,92.5815-59.172,110.64-87.603,114.9419a4.897,4.897,0,0,1-4.408-8.0836c8.2578-9.3427,18.3774-24.3546,18.3774-51.7053,0-95.6609-57.94-112.6426-74.1086-115.5191a3.242,3.242,0,0,1-2.3225-4.6685c5.2864-10.6074,22.9069-38.0979,63.5438-38.0979C243.3315,57.7946,283.469,96.4048,283.469,160.9271Z"/>
        <path class="cls-1" d="M445.9037,119.49c0-32.7506-14.9228-46.6646-27.0421-52.5644a3.4166,3.4166,0,0,1,1.1073-6.4607c11.4276-1.3782,26.2316-2.9137,35.4639-2.9137,40.0391,0,78.2536,14.1492,78.2536,58.9069v93.4135c0,33.3343,14.2852,32.653,24.8819,29.058a3.2356,3.2356,0,0,1,3.5966,5.045C551.379,257.7623,529.64,279.6115,500.19,279.6115c-34.0736,0-54.2867-29.7466-54.2867-88.3647Z"/>
        <path class="cls-1" d="M394.0132,165.8744a3.4225,3.4225,0,0,0-4.0878-4.485c-19.183,5.11-74.4186,23.966-74.4186,71.66,0,31.4025,26.638,49.5266,51.76,49.5266,36.1793,0,55.8238-29.8181,62.2514-41.7862a3.4246,3.4246,0,0,0-2.8348-5.0347C373.9457,232.63,387.62,183.62,394.0132,165.8744Z"/>
        <path class="cls-1" d="M787.28,223.6108c4.0661-2.4738,8.6749.4088,5.9607,4.3184-15.0412,21.666-46.1031,51.6823-102.7585,51.6823-59.0512,0-108.2846-40.2863-108.2846-105.1127,0-75.5022,59.0184-102.7928,84.7884-111.11a3.7767,3.7767,0,0,1,4.2233,5.8172,97.9879,97.9879,0,0,0-18.8433,57.5035c0,65.6152,38.5493,106.9175,89.66,106.9175C762.0721,233.6267,776.9949,229.8684,787.28,223.6108Z"/>
        <path class="cls-1" d="M825.4257,68.8166h0a4.7837,4.7837,0,0,1,3.7415-4.68c14.4688-3.2315,67.6073-17.7746,100.998-62.767a3.3579,3.3579,0,0,1,6.06,1.9954v57.916h51.5057a5.1669,5.1669,0,0,1,5.1669,5.1669v3.6652a5.1668,5.1668,0,0,1-5.1669,5.1668H936.2251V175.7005c0,55.535,32.1711,54.7705,46.9794,51.4771a3.6232,3.6232,0,0,1,3.97,5.2286c-7.6791,14.8619-29.7126,46.8577-77.09,46.8577-42.7109,0-61.9237-28.8549-61.9237-72.9439V110.1178c0-31.9483-14.6621-33.7341-20.4369-37.2076A4.762,4.762,0,0,1,825.4257,68.8166Z"/>
        <path class="cls-1" d="M708.9636,62.33a2.58,2.58,0,0,1,1.2031-4.8547c27.1263-.1942,90.3511,4.55,90.3511,53.0041,0,12.4279-10.8723,23.8739-26.58,23.8739C732.0091,134.3537,742.66,81.19,708.9636,62.33Z"/>
        <path class="cls-1" d="M387.4111,71.8832a2.7643,2.7643,0,0,0-3.517-3.7353c-17.9845,7.048-61.3452,26.7617-61.3452,53,0,12.3326,7.5726,21.42,21.2033,21.42C387.35,142.5674,376.3067,95.91,387.4111,71.8832Z"/>
      </g>
    </g>
  </g>
</svg>
